<?xml version="1.0" encoding="UTF-8" standalone="no"?>
<svg xmlns="http://www.w3.org/2000/svg" width="1080" height="1080" viewBox="0 0 1080 1080">
  <!-- Fondo gradiente -->
  <defs>
    <linearGradient id="bgGradient" x1="0%" y1="0%" x2="100%" y2="100%">
      <stop offset="0%" style="stop-color:#0a1155;stop-opacity:1" />
      <stop offset="100%" style="stop-color:#5d1e96;stop-opacity:1" />
    </linearGradient>
  </defs>
  
  <!-- Fondo principal -->
  <rect width="1080" height="1080" fill="url(#bgGradient)" />
  
  <!-- Iconos multimedia y elementos interactivos -->
  <g fill="none" stroke="#6e9fff" stroke-width="3" opacity="0.5">
    <!-- Icono de micrófono -->
    <circle cx="150" cy="150" r="50" />
    <path d="M130,130 L130,180 Q150,200 170,180 L170,130 Q150,110 130,130 Z" />
    <path d="M110,200 Q150,230 190,200" />
    
    <!-- Iconos de cámara y dispositivos -->
    <rect x="350" cy="150" width="80" height="60" rx="10" />
    <circle cx="390" cy="180" r="20" />
    <rect x="650" cy="150" width="60" height="100" rx="10" />
    <rect x="660" cy="170" width="40" height="40" rx="5" />
    
    <!-- Panel central de reproducción -->
    <rect x="300" y="350" width="480" height="280" rx="15" />
    <polygon points="480,410 480,570 580,490" fill="#6e9fff" opacity="0.3"/>
    <line x1="300" y1="600" x2="780" y2="600" />
    <rect x="320" y="620" width="50" height="10" rx="5" fill="#6e9fff" opacity="0.3"/>
    <rect x="380" y="620" width="50" height="10" rx="5" fill="#6e9fff" opacity="0.3"/>
    <rect x="440" y="620" width="50" height="10" rx="5" fill="#6e9fff" opacity="0.3"/>
    
    <!-- Botones de control -->
    <rect x="820" y="400" width="60" height="60" rx="10" />
    <polygon points="830,410 830,450 860,430" fill="#6e9fff" opacity="0.3"/>
    
    <rect x="820" y="480" width="60" height="60" rx="10" />
    <polygon points="835,490 835,530 850,510" fill="#6e9fff" opacity="0.3"/>
    <polygon points="855,490 855,530 870,510" fill="#6e9fff" opacity="0.3"/>
  </g>
  
  <!-- Ondas de audio -->
  <g stroke="#6e9fff" stroke-width="2" opacity="0.4" fill="none">
    <path d="M150,450 Q170,420 190,450 Q210,480 230,450" />
    <path d="M850,450 Q870,420 890,450 Q910,480 930,450" />
    <path d="M150,950 Q170,920 190,950 Q210,980 230,950" />
    <path d="M350,950 Q370,920 390,950 Q410,980 430,950" />
    <path d="M550,950 Q570,920 590,950 Q610,980 630,950" />
    <path d="M750,950 Q770,920 790,950 Q810,980 830,950" />
  </g>
  
  <!-- Silueta de persona -->
  <path d="M450,650 C470,620 500,600 530,580 L540,480 L550,580 C580,600 610,620 630,650 L600,700 L480,700 Z" fill="#0a1155" opacity="0.8"/>
  <path d="M550,620 L570,680" stroke="#6e9fff" stroke-width="1" opacity="0.5"/>
  
  <!-- Siluetas de audiencia -->
  <g fill="#0a1155" opacity="0.6">
    <ellipse cx="200" cy="880" rx="25" ry="15"/>
    <rect x="190" y="830" width="20" height="50" rx="10"/>
    
    <ellipse cx="300" cy="900" rx="25" ry="15"/>
    <rect x="290" y="850" width="20" height="50" rx="10"/>
    
    <ellipse cx="500" cy="890" rx="25" ry="15"/>
    <rect x="490" y="840" width="20" height="50" rx="10"/>
    
    <ellipse cx="600" cy="910" rx="25" ry="15"/>
    <rect x="590" y="860" width="20" height="50" rx="10"/>
    
    <ellipse cx="800" cy="880" rx="25" ry="15"/>
    <rect x="790" y="830" width="20" height="50" rx="10"/>
  </g>
  
  <!-- Manos levantadas -->
  <g stroke="#0a1155" stroke-width="4" opacity="0.6">
    <line x1="200" y1="820" x2="190" y2="770"/>
    <line x1="300" y1="840" x2="310" y2="790"/>
    <line x1="500" y1="830" x2="490" y2="780"/>
    <line x1="600" y1="850" x2="610" y2="800"/>
    <line x1="800" y1="820" x2="790" y2="770"/>
  </g>
</svg>