<?xml version="1.0" encoding="UTF-8" standalone="no"?>
<svg xmlns="http://www.w3.org/2000/svg" width="800" height="500" viewBox="0 0 800 500">
  <!-- Fondo gradiente -->
  <defs>
    <linearGradient id="grad1" x1="0%" y1="0%" x2="100%" y2="100%">
      <stop offset="0%" style="stop-color:#e6f0ff;stop-opacity:1" />
      <stop offset="100%" style="stop-color:#d9e6ff;stop-opacity:1" />
    </linearGradient>
  </defs>
  
  <!-- Fondo principal -->
  <rect width="800" height="500" fill="url(#grad1)" />
  
  <!-- Patrón de puntos decorativos -->
  <g fill="#b3c9ff" opacity="0.3">
    <circle cx="50" cy="50" r="3" />
    <circle cx="150" cy="80" r="2" />
    <circle cx="250" cy="40" r="4" />
    <circle cx="350" cy="70" r="2" />
    <circle cx="450" cy="30" r="3" />
    <circle cx="550" cy="60" r="2" />
    <circle cx="650" cy="50" r="4" />
    <circle cx="750" cy="40" r="2" />
    
    <circle cx="100" cy="150" r="3" />
    <circle cx="200" cy="180" r="2" />
    <circle cx="300" cy="140" r="4" />
    <circle cx="400" cy="170" r="2" />
    <circle cx="500" cy="130" r="3" />
    <circle cx="600" cy="160" r="2" />
    <circle cx="700" cy="150" r="4" />
    
    <circle cx="80" cy="250" r="3" />
    <circle cx="180" cy="280" r="2" />
    <circle cx="280" cy="240" r="4" />
    <circle cx="380" cy="270" r="2" />
    <circle cx="480" cy="230" r="3" />
    <circle cx="580" cy="260" r="2" />
    <circle cx="680" cy="250" r="4" />
    <circle cx="750" cy="300" r="2" />
    
    <circle cx="100" cy="350" r="3" />
    <circle cx="200" cy="380" r="2" />
    <circle cx="300" cy="340" r="4" />
    <circle cx="400" cy="370" r="2" />
    <circle cx="500" cy="330" r="3" />
    <circle cx="600" cy="360" r="2" />
    <circle cx="700" cy="350" r="4" />
    
    <circle cx="50" cy="450" r="3" />
    <circle cx="150" cy="480" r="2" />
    <circle cx="250" cy="440" r="4" />
    <circle cx="350" cy="470" r="2" />
    <circle cx="450" cy="430" r="3" />
    <circle cx="550" cy="460" r="2" />
    <circle cx="650" cy="450" r="4" />
    <circle cx="750" cy="440" r="2" />
  </g>
  
  <!-- Texto "Imagen en desarrollo" -->
  <text x="400" y="220" font-family="Arial, sans-serif" font-size="28" font-weight="600" text-anchor="middle" fill="#7a94d1">
    Imagen en desarrollo
  </text>
  
  <!-- Texto corporativo -->
  <text x="400" y="270" font-family="Arial, sans-serif" font-size="22" text-anchor="middle" fill="#8a9ccc">
    C.H.E. - Corporación Herejía Económica
  </text>
  
  <!-- Líneas decorativas -->
  <line x1="250" y1="310" x2="550" y2="310" stroke="#8a9ccc" stroke-width="2" stroke-dasharray="5,5" />
  
  <!-- Logo simplificado -->
  <circle cx="400" cy="350" r="50" fill="#9b57c2" opacity="0.8" />
  <text x="400" y="356" font-family="Arial, sans-serif" font-size="14" font-weight="bold" text-anchor="middle" fill="white">
    MUNDO LIBRE
  </text>
</svg>
