<?xml version="1.0" encoding="UTF-8"?>
<svg xmlns="http://www.w3.org/2000/svg" viewBox="0 0 800 800">
  <!-- Fondo degradado -->
  <defs>
    <linearGradient id="bgGradient" x1="0%" y1="0%" x2="100%" y2="100%">
      <stop offset="0%" stop-color="#3a0d5e" />
      <stop offset="50%" stop-color="#8a1b90" />
      <stop offset="100%" stop-color="#e93b81" />
    </linearGradient>
    
    <linearGradient id="planetGradient" x1="0%" y1="0%" x2="100%" y2="100%">
      <stop offset="0%" stop-color="#2b78e4" />
      <stop offset="100%" stop-color="#1e4b9c" />
    </linearGradient>
    
    <filter id="glow" x="-20%" y="-20%" width="140%" height="140%">
      <feGaussianBlur stdDeviation="8" result="blur" />
      <feComposite in="SourceGraphic" in2="blur" operator="over" />
    </filter>
  </defs>
  
  <!-- Fondo circular grande -->
  <circle cx="400" cy="400" r="350" fill="url(#bgGradient)" />
  
  <!-- Planeta (más pequeño y en la parte superior) -->
  <circle cx="400" cy="270" r="140" fill="url(#planetGradient)" stroke="#85c5ff" stroke-width="2" />
  
  <!-- Detalles del planeta (continentes) -->
  <path d="M350,230 Q380,210 410,220 Q440,240 470,230 Q480,260 460,290 Q430,300 400,290 Q370,310 340,290 Q330,270 350,230" fill="#56ab5f" opacity="0.8" />
  <path d="M320,270 Q340,250 360,260 Q370,280 350,300 Q330,290 320,270" fill="#56ab5f" opacity="0.8" />
  <path d="M410,310 Q440,300 470,310 Q480,330 450,340 Q430,330 410,310" fill="#56ab5f" opacity="0.8" />
  
  <!-- Anillo planetario -->
  <ellipse cx="400" cy="270" rx="190" ry="50" fill="none" stroke="#ffdb58" stroke-width="6" opacity="0.7" />
  
  <!-- Pequeño brillo en el planeta -->
  <circle cx="365" cy="235" r="25" fill="white" opacity="0.2" />
  
  <!-- Texto principal - en arco superior -->
  <path id="textCirclePathTop" 
        d="M400,400 m-240,0 a240,240 0 0,1 480,0"
        fill="none" />
  
  <text>
    <textPath href="#textCirclePathTop" startOffset="50%" text-anchor="middle" 
              font-family="Arial, sans-serif" font-weight="bold" font-size="28" fill="white" letter-spacing="1.5">
      CORPORACIÓN HEREJÍA ECONÓMICA
    </textPath>
  </text>
  
  <!-- Texto central - en el centro del círculo (posición ajustada) -->
  <text x="400" y="480" 
        font-family="Arial, sans-serif" font-weight="bold" font-size="70" 
        text-anchor="middle" fill="white">C.H.E.</text>
        
  <!-- Texto inferior - en arco inferior (posición ajustada) -->
  <path id="textCirclePathBottom" 
        d="M400,520 m-200,0 a200,200 0 0,0 400,0"
        fill="none" />
  
  <text>
    <textPath href="#textCirclePathBottom" startOffset="50%" text-anchor="middle" 
              font-family="Arial, sans-serif" font-weight="bold" font-size="28" fill="white" letter-spacing="2">
      MUNDO LIBRE
    </textPath>
  </text>
</svg>